<?xml version="1.0" encoding="utf-8"?>
<!-- Generator: Adobe Illustrator 23.0.1, SVG Export Plug-In . SVG Version: 6.00 Build 0)  -->
<svg version="1.1" id="Layer_1" xmlns="http://www.w3.org/2000/svg" xmlns:xlink="http://www.w3.org/1999/xlink" x="0px" y="0px"
	 viewBox="0 0 248 30" style="enable-background:new 0 0 248 30;" xml:space="preserve">
<style type="text/css">
	.st0{fill:none;}
	.st1{fill-rule:evenodd;clip-rule:evenodd;fill:#223C50;}
</style>
<title>Logo/Wordmark/White</title>
<desc>Created with Sketch.</desc>
<g>
	<rect class="st0" width="248" height="30"/>
	<g>
		<path class="st1" d="M15.8,19.9c-0.9,4.7-4.4,10-9.9,10c-8,0-6-9.4-4.7-15.2C2.4,9,4.8,1,12.1,1c5,0,6.6,3.9,5.7,8.6h-2.4
			c0.4-3.3-0.1-6.5-3.8-6.5c-5.8,0-7.4,8.4-8.2,12.1c-0.9,4.2-2.9,12.5,3.2,12.5c4.1,0,6-4.5,6.8-7.9L15.8,19.9L15.8,19.9z"/>
		<path class="st1" d="M30.6,18.6L29.9,4.6h-0.1l-6.6,13.9H30.6L30.6,18.6z M31.9,1.6l1.5,27.6H31l-0.4-8.5h-8.4l-4,8.5h-2.3
			L29.2,1.6L31.9,1.6L31.9,1.6z"/>
		<path class="st1" d="M41.8,14.1H46c0.8,0,4.9-0.3,6-5.2c0.8-4-0.8-5.1-4.5-5.1H44L41.8,14.1L41.8,14.1z M41.3,16.2l-2.8,13h-2.4
			L42,1.6h5.3c5,0,8.2,1.5,7,7.1c-0.6,2.7-2.4,5.8-5.4,6.5v0.1c3,0.8,2.9,3.3,2.2,6.7c-0.2,1.3-1.4,6.2-0.2,6.9l-0.1,0.3h-2.6
			c-0.6-2.3,0.6-7,0.8-9c0.6-3.7-2.2-3.9-5.3-3.9L41.3,16.2L41.3,16.2z"/>
		<polygon class="st1" points="54,29.2 59.8,1.6 72.3,1.6 71.9,3.8 61.8,3.8 59.7,13.7 68.9,13.7 68.4,15.8 59.2,15.8 56.8,27.1 
			67.1,27.1 66.7,29.2 		"/>
		<polygon class="st1" points="70.3,29.2 76.2,1.6 88.7,1.6 88.2,3.8 78.1,3.8 76,13.7 85.2,13.7 84.7,15.8 75.5,15.8 73.1,27.1 
			83.4,27.1 83,29.2 		"/>
		<path class="st1" d="M92.1,14.1h4.2c0.8,0,4.9-0.3,6-5.2c0.8-4-0.8-5.1-4.5-5.1h-3.5L92.1,14.1L92.1,14.1z M91.6,16.2l-2.8,13
			h-2.4l5.8-27.6h5.3c5,0,8.2,1.5,7,7.1c-0.6,2.7-2.4,5.8-5.4,6.5v0.1c3,0.8,2.9,3.3,2.2,6.7c-0.2,1.3-1.4,6.2-0.2,6.9l-0.1,0.3
			h-2.6c-0.5-2.3,0.6-7,0.8-9c0.6-3.7-2.2-3.9-5.3-3.9L91.6,16.2L91.6,16.2z"/>
		<polygon class="st1" points="104.4,29.2 110.2,1.6 125.4,1.6 124.3,7.1 115.5,7.1 114.5,12 122.5,12 121.3,17.6 113.3,17.6 
			110.8,29.2 		"/>
		<path class="st1" d="M137.3,9.6c0.4-1.7,0.7-3.7-1.5-3.7c-2.1,0-2.8,2-3.1,3.7L130.3,21c-0.4,1.6-0.6,3.9,1.5,3.9
			c2.1,0,2.7-2.4,3.1-3.9L137.3,9.6L137.3,9.6z M141.5,20.4c-1.3,6.2-4.2,9.4-10.7,9.4s-8.1-3.2-6.8-9.4l2.4-11.2
			c1.1-5.3,4.9-8.2,10.5-8.2c5.7,0,8.1,2.9,7,8.2L141.5,20.4L141.5,20.4z"/>
		<path class="st1" d="M148.4,1.6h6.5l-4.4,20.8c-0.3,1.3-0.1,2.5,1.7,2.5c1.7,0,2.5-1.5,2.8-2.6l4.4-20.6h6.5l-4.2,20
			c-1,4.7-3.9,8.3-10.5,8.3c-5.5,0-8.1-2.6-6.9-8.3L148.4,1.6L148.4,1.6z"/>
		<polygon class="st1" points="171.9,13.8 171.9,13.8 169.2,29.2 163.1,29.2 168.9,1.6 175.6,1.6 177.3,17 177.4,17 180,1.6 
			186.2,1.6 180.3,29.2 173.7,29.2 		"/>
		<path class="st1" d="M191.1,24.2c4.3,0.3,4.7-1.5,5.3-5.1l1.9-9c0.6-3.2-0.4-3.4-3.5-3.5L191.1,24.2L191.1,24.2z M183.6,29.2
			l5.8-27.6h7c2.4,0,5.2,0.1,7,1.3c2.2,1.5,2,4.2,1.5,6.8L202.4,22c-0.6,2.8-1.9,4.8-4,6c-1.9,1.1-4,1.3-6,1.3L183.6,29.2
			L183.6,29.2z"/>
		<path class="st1" d="M213.8,13.4h2.2c1.9,0,2.7-1.7,3-3.4c0.7-3.3-0.6-3.4-3.8-3.3C215.2,6.6,213.8,13.4,213.8,13.4z M210.4,29.2
			h-6.5l5.8-27.6h9.4c5.3,0,7.5,2.1,6.3,7.6c-0.6,2.9-1.8,5-4.7,6.3v0.1c1.7,0.4,2.7,1.7,2.4,3.6c-0.3,2.2-1.3,6.9-1.3,8.7
			c0.1,0.4,0.2,0.7,0.4,1l-0.1,0.4h-7.1c-0.1-0.5-0.1-1,0-1.6c0.4-2.4,1-4.7,1.2-6.4c0.2-1.7-0.1-2.8-1.6-2.9h-2.1L210.4,29.2
			L210.4,29.2z"/>
		<polygon class="st1" points="235.5,10.6 235.6,10.6 240.8,1.6 247.3,1.6 237.3,17.6 234.8,29.2 228.3,29.2 230.8,17.6 227.7,1.6 
			234.2,1.6 		"/>
	</g>
</g>
</svg>
